<?xml version="1.0" encoding="UTF-8"?>
<svg width="1200pt" height="1200pt" version="1.1" viewBox="0 0 1200 1200" xmlns="http://www.w3.org/2000/svg">
 <path d="m264.63 864.63 600.02-600.02 70.711 70.711-600.02 600.02z"/>
 <path d="m550 375c0-46.414-18.438-90.926-51.258-123.74-32.816-32.82-77.328-51.258-123.74-51.258s-90.926 18.438-123.74 51.258c-32.82 32.816-51.258 77.328-51.258 123.74s18.438 90.926 51.258 123.74c32.816 32.82 77.328 51.258 123.74 51.258s90.926-18.438 123.74-51.258c32.82-32.816 51.258-77.328 51.258-123.74zm-250 0c0-19.891 7.9023-38.969 21.969-53.031 14.062-14.066 33.141-21.969 53.031-21.969s38.969 7.9023 53.031 21.969c14.066 14.062 21.969 33.141 21.969 53.031s-7.9023 38.969-21.969 53.031c-14.062 14.066-33.141 21.969-53.031 21.969s-38.969-7.9023-53.031-21.969c-14.066-14.062-21.969-33.141-21.969-53.031z"/>
 <path d="m825 650c-46.414 0-90.926 18.438-123.74 51.258-32.82 32.816-51.258 77.328-51.258 123.74s18.438 90.926 51.258 123.74c32.816 32.82 77.328 51.258 123.74 51.258s90.926-18.438 123.74-51.258c32.82-32.816 51.258-77.328 51.258-123.74 0-30.719-8.0859-60.898-23.445-87.5-15.359-26.602-37.453-48.695-64.055-64.055-26.602-15.359-56.781-23.445-87.5-23.445zm0 250c-19.891 0-38.969-7.9023-53.031-21.969-14.066-14.062-21.969-33.141-21.969-53.031s7.9023-38.969 21.969-53.031c14.062-14.066 33.141-21.969 53.031-21.969s38.969 7.9023 53.031 21.969c14.066 14.062 21.969 33.141 21.969 53.031s-7.9023 38.969-21.969 53.031c-14.062 14.066-33.141 21.969-53.031 21.969z"/>
</svg>
