<?xml version="1.0" encoding="UTF-8"?>
<svg width="1200pt" height="1200pt" version="1.1" viewBox="0 0 1200 1200" xmlns="http://www.w3.org/2000/svg">
 <path d="m1013.9 169.31v-109.31c0-19.875-16.125-36-36-36h-252c-19.875 0-36 16.125-36 36v109.31c-61.922 9.0469-107.91 62.109-108 124.69v189.28l-31.641-31.641c-42.188-42.188-110.53-42.188-152.72 0l-287.86 287.86c-42.188 42.188-42.188 110.58 0 152.72 20.203 20.203 47.625 31.594 76.219 31.641v216.14c0 19.875 16.125 36 36 36h504c19.875 0 36-16.125 36-36v-72h234c69.562-0.09375 125.9-56.438 126-126v-648c-0.046875-62.625-46.031-115.69-108-124.69zm-72-73.312v72h-180v-72zm-234 144h288c29.812 0 54 24.188 54 54v117h-396v-117c0.046875-29.812 24.234-53.953 54-54zm-198 864h-72v-180.14h72zm180-216.14v216.14h-108v-216.14c0-19.875-16.125-36-36-36h-144c-19.875 0-36 16.125-36 36v216.14h-108v-216.14c0-19.875-16.125-36-36-36h-35.859c-19.875-0.046874-35.953-16.172-35.953-36.047 0-9.5156 3.7969-18.656 10.547-25.406l287.81-287.86c14.062-14.062 36.844-14.062 50.906 0l287.86 287.86c14.062 14.062 14.062 36.844 0 50.906-6.75 6.75-15.891 10.547-25.453 10.547h-35.859c-19.875 0-36 16.125-36 36zm306 108.14h-234v-72.141c59.672-0.09375 107.95-48.469 107.86-108.14-0.046875-28.594-11.391-56.016-31.641-76.219l-184.22-184.22v-72.281h396v459c0 29.812-24.141 54-54 54z"/>
</svg>
